
<svg width="100" height="100" viewBox="0 0 100 100" xmlns="http://www.w3.org/2000/svg">
  <defs>
    <pattern id="farm-pattern" x="0" y="0" width="20" height="20" patternUnits="userSpaceOnUse">
      <!-- Tiny Plant -->
      <path d="M10,15 L10,10 M8,9 L10,10 L12,9 M9,7 L10,10 L11,7" fill="none" stroke="#65A30D" stroke-width="0.5" />
      
      <!-- Tiny Wheat -->
      <path d="M3,15 L3,10 M1,8 L3,10 M2,7 L3,10 M5,8 L3,10 M4,7 L3,10" fill="none" stroke="#65A30D" stroke-width="0.5" />
      
      <!-- Tiny Sun -->
      <circle cx="17" cy="5" r="1.5" fill="none" stroke="#d97706" stroke-width="0.5" />
      <path d="M17,2 L17,3 M20,5 L19,5 M17,8 L17,7 M14,5 L15,5 M18.5,3.5 L18,4 M18.5,6.5 L18,6 M15.5,6.5 L16,6 M15.5,3.5 L16,4" fill="none" stroke="#d97706" stroke-width="0.5" />
    </pattern>
  </defs>
  <rect width="100%" height="100%" fill="url(#farm-pattern)" />
</svg>
